<svg width="94" height="16" viewBox="0 0 94 16" fill="none" xmlns="http://www.w3.org/2000/svg">
<path fill-rule="evenodd" clip-rule="evenodd" d="M5.25799 0.0291443C2.39563 1.36028 0.411163 4.26148 0.411163 7.62617C0.411163 12.2509 4.16026 16 8.785 16C10.5529 16 12.1928 15.4522 13.5443 14.517L5.25799 0.0291443Z" fill="white"/>
<path d="M17.745 13.9408C17.3682 14.5929 16.4261 14.593 16.0493 13.9408L8.84286 1.46744C8.46605 0.815244 8.93706 -6.17999e-06 9.69068 -6.1141e-06L24.1036 -4.85408e-06C24.8573 -4.7882e-06 25.3283 0.815245 24.9515 1.46744L17.745 13.9408Z" fill="white"/>
<path d="M86.9422 15.7642V4.1444H89.5975V6.08102H89.7185C89.9304 5.41026 90.2935 4.89333 90.8079 4.53021C91.3274 4.16205 91.9199 3.97797 92.5857 3.97797C92.737 3.97797 92.9059 3.98553 93.0925 4.00066C93.2842 4.01075 93.443 4.0284 93.5691 4.05362V6.57275C93.4531 6.5324 93.269 6.4971 93.0169 6.46684C92.7697 6.43153 92.5302 6.41388 92.2982 6.41388C91.7989 6.41388 91.35 6.52231 90.9516 6.73918C90.5582 6.95099 90.2481 7.24603 90.0211 7.62428C89.7942 8.00252 89.6807 8.43877 89.6807 8.93301V15.7642H86.9422Z" fill="white"/>
<path d="M79.4586 15.9911C78.2936 15.9911 77.2874 15.749 76.4401 15.2649C75.5979 14.7757 74.9498 14.0847 74.496 13.1921C74.0421 12.2944 73.8151 11.2378 73.8151 10.0223C73.8151 8.82708 74.0421 7.77807 74.496 6.87532C74.9549 5.96753 75.5954 5.26146 76.4175 4.75713C77.2395 4.24776 78.2053 3.99307 79.3148 3.99307C80.031 3.99307 80.7068 4.10907 81.3422 4.34106C81.9827 4.56801 82.5476 4.92104 83.0368 5.40015C83.531 5.87927 83.9194 6.48951 84.2018 7.23087C84.4842 7.9672 84.6254 8.84473 84.6254 9.86348V10.7032H75.1012V8.85734H82.0004C81.9953 8.33284 81.8819 7.86633 81.66 7.45782C81.4381 7.04427 81.1279 6.71898 80.7295 6.48194C80.3361 6.24491 79.8772 6.12639 79.3527 6.12639C78.7928 6.12639 78.3011 6.26256 77.8775 6.5349C77.4539 6.80219 77.1235 7.15522 76.8865 7.59399C76.6545 8.02772 76.536 8.50431 76.5309 9.02377V10.6351C76.5309 11.3109 76.6545 11.8909 76.9016 12.375C77.1487 12.8542 77.4942 13.2223 77.938 13.4795C78.3818 13.7317 78.9013 13.8578 79.4964 13.8578C79.8948 13.8578 80.2554 13.8023 80.5782 13.6913C80.901 13.5754 81.1809 13.4064 81.4179 13.1845C81.6549 12.9626 81.834 12.6877 81.955 12.3599L84.512 12.6474C84.3506 13.3232 84.0429 13.9133 83.589 14.4176C83.1402 14.9169 82.5652 15.3052 81.8642 15.5826C81.1632 15.8549 80.3613 15.9911 79.4586 15.9911Z" fill="white"/>
<path d="M65.1608 12.1179L65.1532 8.81199H65.592L69.7679 4.14441H72.9678L67.8312 9.86351H67.2639L65.1608 12.1179ZM62.6644 15.7642V0.271149H65.4029V15.7642H62.6644ZM69.957 15.7642L66.1745 10.4763L68.0204 8.54721L73.2326 15.7642H69.957Z" fill="white"/>
<path d="M53.7755 15.9987C53.0392 15.9987 52.376 15.8675 51.786 15.6053C51.2009 15.338 50.7369 14.9446 50.394 14.4251C50.0561 13.9057 49.8871 13.2652 49.8871 12.5036C49.8871 11.848 50.0082 11.3059 50.2503 10.8772C50.4923 10.4485 50.8227 10.1056 51.2413 9.84835C51.6599 9.59114 52.1314 9.39697 52.6559 9.26585C53.1855 9.12968 53.7327 9.03133 54.2975 8.97081C54.9784 8.90021 55.5306 8.83717 55.9542 8.78169C56.3779 8.72117 56.6855 8.63039 56.8772 8.50935C57.0739 8.38327 57.1722 8.1891 57.1722 7.92685V7.88146C57.1722 7.31157 57.0032 6.87028 56.6653 6.55759C56.3274 6.24491 55.8408 6.08857 55.2053 6.08857C54.5346 6.08857 54.0025 6.23482 53.6091 6.52733C53.2208 6.81984 52.9585 7.16531 52.8223 7.56373L50.2654 7.20061C50.4671 6.49455 50.8 5.90448 51.264 5.43041C51.728 4.9513 52.2953 4.59323 52.9661 4.35619C53.6368 4.11411 54.3782 3.99307 55.1902 3.99307C55.75 3.99307 56.3073 4.05864 56.862 4.18976C57.4168 4.32089 57.9237 4.53775 58.3826 4.84035C58.8415 5.1379 59.2097 5.54389 59.4871 6.05831C59.7695 6.57272 59.9107 7.21574 59.9107 7.98737V15.7641H57.2781V14.1679H57.1873C57.0209 14.4907 56.7864 14.7933 56.4838 15.0757C56.1862 15.3531 55.8105 15.5775 55.3566 15.749C54.9078 15.9154 54.3807 15.9987 53.7755 15.9987ZM54.4866 13.9864C55.0364 13.9864 55.513 13.878 55.9164 13.6611C56.3199 13.4392 56.63 13.1467 56.8469 12.7836C57.0688 12.4204 57.1798 12.0245 57.1798 11.5959V10.2266C57.094 10.2972 56.9478 10.3628 56.741 10.4233C56.5393 10.4838 56.3123 10.5368 56.0602 10.5822C55.808 10.6275 55.5583 10.6679 55.3112 10.7032C55.0641 10.7385 54.8498 10.7688 54.6682 10.794C54.2597 10.8494 53.8941 10.9402 53.5713 11.0663C53.2485 11.1924 52.9938 11.3689 52.8072 11.5959C52.6206 11.8178 52.5273 12.1052 52.5273 12.4583C52.5273 12.9626 52.7114 13.3434 53.0796 13.6006C53.4477 13.8578 53.9167 13.9864 54.4866 13.9864Z" fill="white"/>
<path d="M31.2471 0.271149H34.6816L39.2811 11.4975H39.4626L44.0621 0.271149H47.4966V15.7642H44.8035V5.12029H44.6597L40.378 15.7188H38.3657L34.0839 5.09759H33.9402V15.7642H31.2471V0.271149Z" fill="white"/>
</svg>
